<svg xmlns="http://www.w3.org/2000/svg" version="1.1" xmlns:xlink="http://www.w3.org/1999/xlink" xmlns:svgjs="http://svgjs.dev/svgjs" width="1440" height="560" preserveAspectRatio="none" viewBox="0 0 1440 560">
    <g mask="url(&quot;#SvgjsMask1008&quot;)" fill="none">
        <path d="M1512 560L0 560 L0 316.76Q73.38 270.13, 120 343.51Q187.19 290.7, 240 357.89Q280.63 278.52, 360 319.15Q404.29 243.44, 480 287.72Q567.75 255.47, 600 343.21Q637.59 260.79, 720 298.38Q763.93 270.31, 792 314.24Q854.44 304.69, 864 367.13Q909.64 292.77, 984 338.41Q1005.54 287.95, 1056 309.49Q1082.58 264.06, 1128 290.64Q1189.21 279.85, 1200 341.06Q1275.11 296.17, 1320 371.28Q1359.16 290.45, 1440 329.61Q1458.49 276.11, 1512 294.6z" fill="#182f5d"></path>
        <path d="M1512 560L0 560 L0 438.43Q39.43 357.86, 120 397.29Q133.51 338.81, 192 352.32Q261.42 301.74, 312 371.16Q360.36 347.52, 384 395.88Q398.7 338.58, 456 353.28Q497.69 322.97, 528 364.66Q593.46 358.12, 600 423.58Q645.75 349.33, 720 395.08Q788.23 343.31, 840 411.54Q871.71 323.25, 960 354.96Q1031.83 306.78, 1080 378.61Q1168.3 346.91, 1200 435.21Q1216.76 379.97, 1272 396.72Q1343.06 347.78, 1392 418.84Q1461.28 368.12, 1512 437.39z" fill="#25467d"></path>
        <path d="M1512 560L0 560 L0 458.57Q28.75 415.32, 72 444.07Q133.82 433.89, 144 495.71Q162.35 442.06, 216 460.41Q233.23 405.64, 288 422.88Q359.87 374.75, 408 446.62Q488.19 406.81, 528 487.01Q556.13 443.13, 600 471.26Q651.36 450.62, 672 501.98Q697.87 407.85, 792 433.72Q835.12 404.84, 864 447.96Q910.93 374.89, 984 421.82Q1038.89 404.71, 1056 459.6Q1103.09 386.69, 1176 433.78Q1217.35 403.13, 1248 444.47Q1313.46 437.93, 1320 503.39Q1362.39 473.78, 1392 516.17Q1434.79 438.96, 1512 481.75z" fill="#356cb1"></path>
        <path d="M1536 560L0 560 L0 547.94Q38.96 514.9, 72 553.87Q112.14 474.01, 192 514.15Q280.64 482.79, 312 571.43Q334.5 521.92, 384 544.42Q425.11 513.53, 456 554.64Q487.56 466.2, 576 497.77Q657.07 458.84, 696 539.91Q742.5 466.41, 816 512.91Q876.06 500.97, 888 561.04Q891.33 492.37, 960 495.7Q1008.18 471.88, 1032 520.07Q1101.63 469.7, 1152 539.32Q1166.54 481.86, 1224 496.39Q1291.89 444.28, 1344 512.17Q1417.32 513.49, 1416 586.81Q1459.62 510.42, 1536 554.04z" fill="rgba(63, 129, 211, 1)"></path>
    </g>
    <defs>
        <mask id="SvgjsMask1008">
            <rect width="1440" height="560" fill="#ffffff"></rect>
        </mask>
    </defs>
</svg>